<?xml version="1.0" encoding="UTF-8"?>
<svg width="48px" height="40px" viewBox="0 0 48 40" version="1.1" xmlns="http://www.w3.org/2000/svg" xmlns:xlink="http://www.w3.org/1999/xlink">
    <!-- Generator: Sketch 44.1 (41455) - http://www.bohemiancoding.com/sketch -->
    <title>Reddit-color</title>
    <desc>Created with Sketch.</desc>
    <defs></defs>
    <g id="Page-1" stroke="none" stroke-width="1" fill="none" fill-rule="evenodd" fill-opacity="0.939999998" opacity="0.623358243">
        <path d="M31.14,26.3258026 C29.346,26.3258026 27.8385,24.8840666 27.8385,23.1064209 C27.8385,21.3287753 29.346,19.8394768 31.14,19.8394768 C32.934,19.8394768 34.389,21.3287753 34.389,23.1064209 C34.389,24.8840666 32.934,26.3258026 31.14,26.3258026 M31.902,32.5743163 C30.231,34.2285969 27.654,35.0326992 24.024,35.0326992 C24.0165,35.0326992 24.0075,35.0312128 23.9985,35.0312128 C23.991,35.0312128 23.982,35.0326992 23.973,35.0326992 C20.343,35.0326992 17.7675,34.2285969 16.098,32.5743163 C15.585,32.0659929 15.585,31.2440547 16.098,30.7372176 C16.6095,30.2303805 17.439,30.2303805 17.952,30.7372176 C19.104,31.8787158 21.0735,32.4346017 23.973,32.4346017 C23.982,32.4346017 23.991,32.436088 23.9985,32.436088 C24.0075,32.436088 24.0165,32.4346017 24.024,32.4346017 C26.9235,32.4346017 28.8945,31.8787158 30.048,30.7372176 C30.561,30.2288942 31.3905,30.2303805 31.902,30.7372176 C32.4135,31.245541 32.4135,32.0674792 31.902,32.5743163 M13.611,23.1064209 C13.611,21.3302616 15.1155,19.8394768 16.908,19.8394768 C18.702,19.8394768 20.157,21.3302616 20.157,23.1064209 C20.157,24.8840666 18.702,26.3258026 16.908,26.3258026 C15.1155,26.3258026 13.611,24.8840666 13.611,23.1064209 M39.996,2.5980975 C41.211,2.5980975 42.1995,3.57758621 42.1995,4.78002378 C42.1995,5.98394768 41.211,6.96343639 39.996,6.96343639 C38.781,6.96343639 37.7925,5.98394768 37.7925,4.78002378 C37.7925,3.57758621 38.781,2.5980975 39.996,2.5980975 M48,19.5704518 C48,16.4179548 45.4125,13.8540428 42.231,13.8540428 C40.854,13.8540428 39.5895,14.3356124 38.5965,15.136742 C35.079,12.9458977 30.615,11.6260404 25.83,11.3466112 L28.326,3.52705113 L35.1855,5.12782402 C35.3655,7.60255648 37.4535,9.56153389 39.996,9.56153389 C42.6555,9.56153389 44.82,7.41676576 44.82,4.78002378 C44.82,2.14476813 42.6555,0 39.996,0 C38.136,0 36.519,1.04934602 35.7135,2.58174792 L27.7425,0.72235434 C27.075,0.566290131 26.4,0.946789536 26.193,1.59482759 L23.094,11.3005351 C17.9385,11.4253864 13.092,12.7497027 9.3165,15.068371 C8.337,14.3088585 7.1055,13.8540428 5.769,13.8540428 C2.5875,13.8540428 0,16.4179548 0,19.5704518 C0,21.519025 0.99,23.2416766 2.4975,24.2731867 C2.4345,24.7265161 2.4015,25.1828181 2.4015,25.6450654 C2.4015,29.5853151 4.713,33.2505945 8.91,35.9646254 C12.933,38.5671819 18.258,40 23.9025,40 C29.547,40 34.872,38.5671819 38.895,35.9646254 C43.092,33.2505945 45.4035,29.5853151 45.4035,25.6450654 C45.4035,25.2244352 45.375,24.8067776 45.3225,24.3920927 C46.9305,23.3769322 48,21.5948276 48,19.5704518" id="Reddit" fill="#FF5700"></path>
    </g>
</svg>