<?xml version="1.0" encoding="UTF-8"?>
<svg width="48px" height="48px" viewBox="0 0 48 48" version="1.1" xmlns="http://www.w3.org/2000/svg" xmlns:xlink="http://www.w3.org/1999/xlink">
    <!-- Generator: Sketch 44.1 (41455) - http://www.bohemiancoding.com/sketch -->
    <title>Slack-color</title>
    <desc>Created with Sketch.</desc>
    <defs></defs>
    <g id="Page-1" stroke="none" stroke-width="1" fill="none" fill-rule="evenodd" fill-opacity="0.939999998" opacity="0.643851902">
        <path d="M45.9906725,17.402355 C41.0436637,0.908325553 33.8961509,-2.93918131 17.4021215,2.00932752 C0.909592117,6.95633634 -2.93941475,14.1038491 2.00909408,30.5978785 C6.9576029,47.0904079 14.1051156,50.9394147 30.597645,45.9909059 C47.0916744,41.0423971 50.9391813,33.8948844 45.9906725,17.402355 M37.6491576,28.109374 L34.5396521,29.1503759 L35.616654,32.3693816 C36.0531548,33.671384 35.3511535,35.0813865 34.0476512,35.5178873 C33.7641507,35.6138874 33.4761502,35.6543875 33.1941497,35.6468875 C32.1771479,35.6198874 31.2396462,34.9688863 30.8991456,33.9488845 L29.8206437,30.7313787 L23.4081322,32.8793825 L24.4851341,36.0968883 C24.9216349,37.4003906 24.2196337,38.8103931 22.9161313,39.2468939 C22.6326308,39.3413941 22.3446303,39.3818941 22.0626298,39.3743941 C21.045628,39.3488941 20.1081263,38.6963929 19.7676257,37.6778911 L18.6891238,34.4588854 L15.5796183,35.5013872 C15.2961178,35.5958874 15.0066172,35.6363875 14.7246167,35.6288875 C13.7091149,35.6033874 12.7716133,34.9508862 12.4296127,33.9308844 C11.9931119,32.6288821 12.6951131,31.2188796 13.9986155,30.7823788 L17.109621,29.739877 L15.0411173,23.5673659 L11.9316118,24.6098678 C11.6481113,24.704368 11.3601107,24.744868 11.0766102,24.737368 C10.0611084,24.711868 9.12360676,24.0593668 8.78160615,23.039365 C8.34510537,21.7373627 9.04860663,20.3273602 10.3506089,19.8908594 L13.4616145,18.8483575 L12.3831126,15.6308518 C11.9466118,14.3273495 12.648613,12.917347 13.9521154,12.4823462 C15.2556177,12.0458454 16.6656202,12.7478467 17.102121,14.051349 L18.1791229,17.2688547 L24.5931343,15.1208509 L23.5146324,11.9033452 C23.0781316,10.5998428 23.7816329,9.18984032 25.0836352,8.75333954 C26.3871375,8.31683876 27.79714,9.02034001 28.2336408,10.3223423 L29.3106427,13.5413481 L32.4216483,12.4988462 C33.7251506,12.0623454 35.1336531,12.7658467 35.5701539,14.067849 C36.0066547,15.3713513 35.3046534,16.7813539 34.0011511,17.2178546 L30.8916456,18.2588565 L32.9586493,24.4328675 L36.0696548,23.3903656 C37.3716571,22.9553649 38.7816596,23.6573661 39.2181604,24.9593684 C39.6546612,26.2628708 38.9526599,27.6728733 37.6491576,28.109374 Z M19.7596757,21.9874131 L21.8266794,28.1599241 L28.2406908,26.0119203 L26.1736872,19.8394093 L19.7596757,21.9874131 Z" id="Slack" fill="#77D4B6"></path>
    </g>
</svg>